<svg width="84" height="21" viewBox="0 0 84 21" fill="none" xmlns="http://www.w3.org/2000/svg">
<path d="M7.24001 9.99399H2.05301V16H0.226013V1.71999H7.87001V3.44199H2.05301V8.27199H7.24001V9.99399Z" fill="black"/>
<path d="M17.8631 9.99399H12.6761V16H10.8491V1.71999H18.4931V3.44199H12.6761V8.27199H17.8631V9.99399Z" fill="black"/>
<path d="M34.1093 16V9.63699H27.8723V16H26.0453V1.71999H27.8723V7.91499H34.1093V1.71999H35.9363V16H34.1093Z" fill="black"/>
<path d="M47.5413 15.391C46.9113 15.699 46.2813 15.909 45.6513 16.021C45.0213 16.147 44.4403 16.21 43.9083 16.21C42.4103 16.21 41.2903 15.783 40.5483 14.929C39.8203 14.075 39.4563 12.906 39.4563 11.422V10.162C39.4563 8.71999 39.8203 7.56499 40.5483 6.69699C41.2903 5.82899 42.3333 5.39499 43.6773 5.39499C44.3913 5.39499 45.0423 5.54199 45.6303 5.83599C46.2323 6.11599 46.7083 6.54999 47.0583 7.13799C47.4223 7.71199 47.6043 8.45399 47.6043 9.36399C47.6043 9.95199 47.5203 10.624 47.3523 11.38H41.1573V11.422C41.1573 12.486 41.3743 13.291 41.8083 13.837C42.2563 14.383 42.9703 14.656 43.9503 14.656C44.3983 14.656 44.8883 14.6 45.4203 14.488C45.9663 14.376 46.4983 14.201 47.0163 13.963L47.5413 15.391ZM43.6773 6.90699C42.8653 6.90699 42.2493 7.17299 41.8293 7.70499C41.4233 8.22299 41.1993 8.95799 41.1573 9.90999H45.8613C45.9033 9.65799 45.9243 9.41999 45.9243 9.19599C45.9243 8.41199 45.7003 7.83799 45.2523 7.47399C44.8183 7.09599 44.2933 6.90699 43.6773 6.90699Z" fill="black"/>
<path d="M50.5633 13.48V0.459991H52.2853V13.396C52.2853 13.774 52.3413 14.061 52.4533 14.257C52.5793 14.439 52.8243 14.53 53.1883 14.53H53.5243V16.105H53.0413C52.1173 16.105 51.4733 15.86 51.1093 15.37C50.7453 14.88 50.5633 14.25 50.5633 13.48Z" fill="black"/>
<path d="M60.2794 16.21C59.4954 16.21 58.6835 16.049 57.8435 15.727V20.473H56.1215V5.60499H57.7594V7.07499C58.4034 6.45899 58.9914 6.02499 59.5234 5.77299C60.0554 5.52099 60.6014 5.39499 61.1614 5.39499C62.2674 5.39499 63.1144 5.81499 63.7024 6.65499C64.3044 7.49499 64.6055 8.67799 64.6055 10.204V11.422C64.6055 12.878 64.2345 14.04 63.4925 14.908C62.7645 15.776 61.6934 16.21 60.2794 16.21ZM60.7415 7.01199C60.3355 7.01199 59.9154 7.11699 59.4814 7.32699C59.0474 7.53699 58.5015 7.96399 57.8435 8.60799V14.152C58.2495 14.334 58.6415 14.467 59.0195 14.551C59.3975 14.621 59.7685 14.656 60.1325 14.656C61.0844 14.656 61.7704 14.369 62.1904 13.795C62.6104 13.207 62.8204 12.416 62.8204 11.422V10.204C62.8204 9.11199 62.6455 8.30699 62.2955 7.78899C61.9595 7.27099 61.4415 7.01199 60.7415 7.01199Z" fill="black"/>
<path d="M75.3294 15.391C74.6994 15.699 74.0694 15.909 73.4394 16.021C72.8094 16.147 72.2284 16.21 71.6964 16.21C70.1984 16.21 69.0784 15.783 68.3364 14.929C67.6084 14.075 67.2444 12.906 67.2444 11.422V10.162C67.2444 8.71999 67.6084 7.56499 68.3364 6.69699C69.0784 5.82899 70.1214 5.39499 71.4654 5.39499C72.1794 5.39499 72.8304 5.54199 73.4184 5.83599C74.0204 6.11599 74.4964 6.54999 74.8464 7.13799C75.2104 7.71199 75.3924 8.45399 75.3924 9.36399C75.3924 9.95199 75.3084 10.624 75.1404 11.38H68.9454V11.422C68.9454 12.486 69.1624 13.291 69.5964 13.837C70.0444 14.383 70.7584 14.656 71.7384 14.656C72.1864 14.656 72.6764 14.6 73.2084 14.488C73.7544 14.376 74.2864 14.201 74.8044 13.963L75.3294 15.391ZM71.4654 6.90699C70.6534 6.90699 70.0374 7.17299 69.6174 7.70499C69.2114 8.22299 68.9874 8.95799 68.9454 9.90999H73.6494C73.6914 9.65799 73.7124 9.41999 73.7124 9.19599C73.7124 8.41199 73.4884 7.83799 73.0404 7.47399C72.6064 7.09599 72.0814 6.90699 71.4654 6.90699Z" fill="black"/>
<path d="M83.8324 7.11699C83.2024 7.11699 82.5864 7.22899 81.9844 7.45299C81.3964 7.67699 80.7664 8.10399 80.0944 8.73399V16H78.3724V5.60499H80.0104V7.28499C80.7244 6.58499 81.3754 6.09499 81.9634 5.81499C82.5654 5.53499 83.1884 5.39499 83.8324 5.39499V7.11699Z" fill="black"/>
</svg>
