<svg width="52" height="52" viewBox="0 0 52 52" fill="none" xmlns="http://www.w3.org/2000/svg">
<path d="M0 8C0 3.58172 3.58172 0 8 0H44C48.4183 0 52 3.58172 52 8V44C52 48.4183 48.4183 52 44 52H8C3.58172 52 0 48.4183 0 44V8Z" fill="#653080"/>
<path fill-rule="evenodd" clip-rule="evenodd" d="M22 8C22 8 22.8844 8.5 26 8.5C29.1156 8.5 30 8 30 8L40 13L42.5 20L38 23L36 20.5C35.6667 27.1205 35.2 40.6253 36 41.6807C36.874 42.8337 26 43.1418 26 43.1418C26 43.1418 15.126 42.8337 16 41.6807C16.8 40.6253 16.3333 27.1205 16 20.5L14 23L9.5 20L12 13L22 8Z" fill="#153DAF"/>
<path d="M26 12C28.2091 12 30 10.2091 30 8C30 8 29 8.5 26 8.5C23 8.5 22 8 22 8C22 10.2091 23.7909 12 26 12Z" fill="#162D79"/>
<path d="M20 35.25C20 35.1119 20.1119 35 20.25 35H22.75C22.8881 35 23 35.1119 23 35.25V39.75C23 39.8881 22.8881 40 22.75 40H20.25C20.1119 40 20 39.8881 20 39.75V35.25Z" fill="#F5F5F5"/>
<path d="M24.5 32.75C24.5 32.6119 24.6119 32.5 24.75 32.5H27.25C27.3881 32.5 27.5 32.6119 27.5 32.75V39.75C27.5 39.8881 27.3881 40 27.25 40H24.75C24.6119 40 24.5 39.8881 24.5 39.75V32.75Z" fill="#F5F5F5"/>
<path d="M29 30.25C29 30.1119 29.1119 30 29.25 30H31.75C31.8881 30 32 30.1119 32 30.25V39.75C32 39.8881 31.8881 40 31.75 40H29.25C29.1119 40 29 39.8881 29 39.75V30.25Z" fill="#F5F5F5"/>
</svg>
